<?xml version="1.0" encoding="utf-8"?>
<!-- Generator: Adobe Illustrator 27.5.0, SVG Export Plug-In . SVG Version: 6.00 Build 0)  -->
<svg version="1.1" id="Livello_1" xmlns="http://www.w3.org/2000/svg" xmlns:xlink="http://www.w3.org/1999/xlink" x="0px" y="0px"
	 viewBox="0 0 1920 750" style="enable-background:new 0 0 1920 750;" xml:space="preserve">
<style type="text/css">
	.st0{fill:#3750A5;}
	.st1{fill:#FAC80F;}
	.st2{fill:#6E46A0;}
	.st3{fill:#87C341;}
	.st4{fill:#32A54B;}
	.st5{fill:#F01E23;}
	.st6{fill:#0AB9B4;}
	.st7{fill:#F56928;}
	.st8{fill:#FFFFFF;}
</style>
<g>
	<polygon class="st0" points="36,431.6 171.8,375.3 246,406.1 215.3,480.3 79.5,536.6 	"/>
	<polygon class="st1" points="425.3,270.3 561.1,214 604.6,319.1 468.8,375.3 394.6,344.5 	"/>
	<polygon class="st2" points="171.8,375.3 36,319.1 79.5,214 215.3,270.3 246,344.5 	"/>
	<polygon class="st3" points="468.8,375.3 604.6,431.6 561.1,536.6 425.3,480.3 394.6,406.1 	"/>
	<polygon class="st4" points="320.3,523.8 351.1,449.6 425.3,480.3 481.6,616.1 376.6,659.6 	"/>
	<polygon class="st5" points="159,134.5 264.1,91 320.3,226.8 289.5,301 215.3,270.3 	"/>
	<polygon class="st6" points="320.3,523.8 264.1,659.6 159,616.1 215.3,480.3 289.5,449.6 	"/>
	<polygon class="st7" points="320.3,226.8 376.6,91 481.6,134.5 425.3,270.3 351.1,301 	"/>
	<path class="st8" d="M1884,372.7c0-29.3-5.3-54.4-15.9-75.3c-10.6-21-25.8-37.1-45.6-48.3c-19.8-11.2-43.5-16.9-71.1-16.9h-94.1
		V514h91.2c28.6,0,53-5.7,73.2-17s35.6-27.5,46.3-48.6C1878.7,427.3,1884,402.1,1884,372.7L1884,372.7z M1842.2,372.7
		c0,22.3-3.5,41.2-10.6,56.6c-7.1,15.5-17.7,27.2-31.9,35.4c-14.2,8.1-32.1,12.2-53.5,12.2h-46.4V269.4h49c20.6,0,37.8,4,51.6,12
		c13.9,8,24.3,19.7,31.3,35.1S1842.2,350.6,1842.2,372.7L1842.2,372.7z M1560.6,514.1h42.5V232.2h-42.5V514.1L1560.6,514.1z
		 M1322.4,431.2c-7.4-15.8-11.1-35.1-11.1-58.1c0-22.8,3.7-42,11.1-57.8s17.5-27.8,30.3-35.9c12.8-8.2,27.3-12.2,43.6-12.2
		c9,0,17.5,1.2,25.5,3.7s15.3,6.1,21.8,11s12,10.8,16.5,17.8s7.6,15,9.2,24.2h42.9c-2.4-15.1-7-28.6-13.8-40.4s-15.4-21.8-25.7-30
		c-10.4-8.2-22-14.5-35-18.7c-13-4.3-26.9-6.4-41.9-6.4c-24.3,0-46,5.8-65.1,17.4s-34.1,28.2-45.1,49.8s-16.5,47.5-16.5,77.5
		s5.5,55.8,16.4,77.5c11,21.7,26,38.3,45.1,49.9s40.8,17.4,65.2,17.4c15.5,0,29.8-2.3,42.9-6.9c13.1-4.6,24.8-11.1,35-19.5
		s18.6-18.4,25.2-30s11-24.3,13.3-38.2l-42.9-0.1c-1.7,9-4.9,17-9.4,23.9s-10.1,12.8-16.6,17.5c-6.5,4.8-13.8,8.4-21.8,10.8
		s-16.5,3.6-25.4,3.6c-16.1,0-30.5-4-43.4-12.1C1339.9,458.9,1329.8,447,1322.4,431.2L1322.4,431.2z M1214.8,514.1h45.2
		l-101.5-281.9h-49.1L1008,514.1h45.1l25.8-74.6H1189L1214.8,514.1L1214.8,514.1z M1176.7,403.7h-85.4l41.6-120.3h2.2L1176.7,403.7
		L1176.7,403.7z M929.8,514.1h42.7V232.2h-42.7v122.5H789.3V232.2h-42.5V514h42.5V391.2h140.5V514.1L929.8,514.1z"/>
</g>
</svg>
